<svg width="317" height="207" viewBox="0 0 317 207" fill="none" xmlns="http://www.w3.org/2000/svg">
<path d="M139.602 68.1953H121.002L92.3016 122.395L87.6016 152.195H98.3016L105.702 136.495H132.502L134.502 152.195H155.002L139.502 68.2953L139.602 68.1953ZM113.102 120.795L126.802 91.8953L130.502 120.795H113.102Z" fill="black"/>
<path d="M82.6016 175.197H84.1016L104.502 46.2969H103.002L82.6016 175.197Z" fill="black"/>
<path d="M69.9 90.8953C70.4 83.7953 68 78.1953 62.8 74.1953C57.6 70.1953 49.8 68.1953 39.2 68.1953H18.3L5 152.095H31.6C41.8 152.095 49.8 149.895 55.7 145.495C61.6 141.095 64.8 134.895 65.3 126.795C65.6 122.595 64.8 118.995 63 115.895C61.2 112.895 58.6 110.795 55.4 109.595C64.5 105.895 69.3 99.5953 69.9 90.7953V90.8953ZM45.9 126.495C45.4 129.495 44 131.995 41.5 133.795C39 135.595 36 136.495 32.3 136.495H20.5L24 116.395H38.5C44.5 116.795 47 120.095 45.9 126.495ZM49.9 93.2953C48.9 99.6953 44.1 102.995 35.5 103.195H26.2L29.6 83.6953H40.1C47.6 83.6953 50.8 86.9953 49.9 93.2953Z" fill="black"/>
<path d="M0 175.697H1.5L21.8 46.7969H20.4L0 175.697Z" fill="black"/>
<path d="M219.098 106.898C216.198 105.098 211.498 102.998 205.098 100.598C198.698 98.0984 195.798 94.9984 196.498 91.0984C196.998 88.3984 198.498 86.1984 200.998 84.5984C203.498 82.9984 206.498 82.1984 209.798 82.2984C213.198 82.2984 215.598 83.3984 217.098 85.2984C218.598 87.1984 219.298 89.7984 219.098 93.0984H238.698C238.698 85.1984 236.298 78.8984 231.198 74.1984C226.098 69.4984 219.498 67.0984 211.198 66.8984C204.998 66.8984 199.298 67.7984 194.098 69.7984C189.998 71.3984 186.498 73.4984 183.798 76.1984L179.698 102.398C182.698 107.398 188.098 111.698 195.898 115.198L205.398 119.098C210.898 121.498 213.298 124.798 212.398 129.198C211.898 131.898 210.498 133.998 208.298 135.498C206.098 136.998 203.298 137.798 199.998 137.798C195.498 137.798 192.398 136.698 190.498 134.498C188.598 132.298 187.798 128.998 187.998 124.698H176.098L173.398 141.898C174.298 142.998 175.198 144.098 176.298 145.098C179.098 147.698 182.398 149.598 186.298 150.998C190.198 152.298 194.398 153.098 198.898 153.098C205.098 153.098 210.698 152.198 215.598 150.198C220.598 148.198 224.498 145.398 227.298 141.698C230.098 137.998 231.698 133.798 231.998 128.998C232.598 119.698 228.298 112.198 219.098 106.798V106.898Z" fill="black"/>
<path d="M166.898 174.9H168.298L188.698 46H187.198L166.898 174.9Z" fill="black"/>
<path d="M297.298 106.906C294.398 105.106 289.698 103.006 283.298 100.606C276.898 98.1062 273.998 95.0062 274.698 91.1062C275.198 88.4062 276.698 86.2062 279.198 84.6062C281.698 83.0062 284.698 82.2063 287.998 82.3063C291.398 82.3063 293.798 83.4063 295.298 85.3063C296.798 87.2063 297.498 89.8062 297.298 93.1062H316.898C316.898 85.2062 314.498 78.9062 309.398 74.2062C304.298 69.5062 297.698 67.1063 289.398 66.9062C283.198 66.9062 277.498 67.8063 272.298 69.8063C268.798 71.2063 265.698 72.9062 263.198 75.1062L258.698 103.706C261.798 108.206 266.898 112.006 274.098 115.206L283.598 119.106C289.098 121.506 291.498 124.806 290.598 129.206C290.098 131.906 288.698 134.006 286.498 135.506C284.298 137.006 281.498 137.806 278.198 137.806C273.698 137.806 270.598 136.706 268.698 134.506C266.798 132.306 265.998 129.006 266.198 124.706H255.298L252.398 143.006C252.998 143.706 253.698 144.506 254.498 145.106C257.298 147.706 260.598 149.606 264.498 151.006C268.398 152.306 272.598 153.106 277.098 153.106C283.298 153.106 288.898 152.206 293.798 150.206C298.798 148.206 302.698 145.406 305.498 141.706C308.298 138.006 309.898 133.806 310.198 129.006C310.798 119.706 306.498 112.206 297.298 106.806V106.906Z" fill="black"/>
<path d="M245.797 176.603H247.297L267.697 47.7031H266.197L245.797 176.603Z" fill="black"/>
</svg>
