<svg width="340" height="340" viewBox="0 0 340 340" fill="none" xmlns="http://www.w3.org/2000/svg">
<g opacity="0.6">
<path fill-rule="evenodd" clip-rule="evenodd" d="M184.5 46.9995C218.315 46.9995 250.745 60.4325 274.656 84.3434C298.567 108.254 312 140.684 312 174.5V296.616C312 322.541 284.148 338.932 261.496 326.352L256.353 323.59C242.187 316.336 231.08 313.956 215.426 321.975L212.621 323.505C204.547 328.117 195.462 330.672 186.168 330.943C176.874 331.215 167.655 329.196 159.326 325.063L156.379 323.505C138.288 313.163 125.694 316.251 107.504 326.338C84.8375 338.946 57 322.555 57 296.63V174.5C57 140.684 70.433 108.254 94.3439 84.3434C118.255 60.4325 150.685 46.9995 184.5 46.9995ZM134.917 146.166C129.281 146.166 123.876 148.405 119.891 152.39C115.905 156.375 113.667 161.78 113.667 167.416C113.667 173.052 115.905 178.457 119.891 182.442C123.876 186.427 129.281 188.666 134.917 188.666C140.553 188.666 145.958 186.427 149.943 182.442C153.928 178.457 156.167 173.052 156.167 167.416C156.167 161.78 153.928 156.375 149.943 152.39C145.958 148.405 140.553 146.166 134.917 146.166ZM234.083 146.166C228.447 146.166 223.042 148.405 219.057 152.39C215.072 156.375 212.833 161.78 212.833 167.416C212.833 173.052 215.072 178.457 219.057 182.442C223.042 186.427 228.447 188.666 234.083 188.666C239.719 188.666 245.124 186.427 249.109 182.442C253.094 178.457 255.333 173.052 255.333 167.416C255.333 161.78 253.094 156.375 249.109 152.39C245.124 148.405 239.719 146.166 234.083 146.166Z" fill="#8B98F2"/>
<path fill-rule="evenodd" clip-rule="evenodd" d="M184.5 46.9995C218.315 46.9995 250.745 60.4325 274.656 84.3434C298.567 108.254 312 140.684 312 174.5V296.616C312 322.541 284.148 338.932 261.496 326.352L256.353 323.59C242.187 316.336 231.08 313.956 215.426 321.975L212.621 323.505C204.547 328.117 195.462 330.672 186.168 330.943C176.874 331.215 167.655 329.196 159.326 325.063L156.379 323.505C138.288 313.163 125.694 316.251 107.504 326.338C84.8375 338.946 57 322.555 57 296.63V174.5C57 140.684 70.433 108.254 94.3439 84.3434C118.255 60.4325 150.685 46.9995 184.5 46.9995ZM134.917 146.166C129.281 146.166 123.876 148.405 119.891 152.39C115.905 156.375 113.667 161.78 113.667 167.416C113.667 173.052 115.905 178.457 119.891 182.442C123.876 186.427 129.281 188.666 134.917 188.666C140.553 188.666 145.958 186.427 149.943 182.442C153.928 178.457 156.167 173.052 156.167 167.416C156.167 161.78 153.928 156.375 149.943 152.39C145.958 148.405 140.553 146.166 134.917 146.166ZM234.083 146.166C228.447 146.166 223.042 148.405 219.057 152.39C215.072 156.375 212.833 161.78 212.833 167.416C212.833 173.052 215.072 178.457 219.057 182.442C223.042 186.427 228.447 188.666 234.083 188.666C239.719 188.666 245.124 186.427 249.109 182.442C253.094 178.457 255.333 173.052 255.333 167.416C255.333 161.78 253.094 156.375 249.109 152.39C245.124 148.405 239.719 146.166 234.083 146.166Z" fill="url(#paint0_linear_20709_4902)"/>
</g>
<path opacity="0.5" fill-rule="evenodd" clip-rule="evenodd" d="M177.5 37.9995C211.315 37.9995 243.745 51.4325 267.656 75.3434C291.567 99.2543 305 131.684 305 165.5V287.616C305 313.541 277.148 329.932 254.496 317.352L249.353 314.59C235.187 307.336 224.08 304.956 208.426 312.975L205.621 314.505C197.547 319.117 188.462 321.672 179.168 321.943C169.874 322.215 160.655 320.196 152.326 316.063L149.379 314.505C131.288 304.163 118.694 307.251 100.504 317.338C77.8375 329.946 50 313.555 50 287.63V165.5C50 131.684 63.433 99.2543 87.3439 75.3434C111.255 51.4325 143.685 37.9995 177.5 37.9995ZM127.917 137.166C122.281 137.166 116.876 139.405 112.891 143.39C108.905 147.375 106.667 152.78 106.667 158.416C106.667 164.052 108.905 169.457 112.891 173.442C116.876 177.427 122.281 179.666 127.917 179.666C133.553 179.666 138.958 177.427 142.943 173.442C146.928 169.457 149.167 164.052 149.167 158.416C149.167 152.78 146.928 147.375 142.943 143.39C138.958 139.405 133.553 137.166 127.917 137.166ZM227.083 137.166C221.447 137.166 216.042 139.405 212.057 143.39C208.072 147.375 205.833 152.78 205.833 158.416C205.833 164.052 208.072 169.457 212.057 173.442C216.042 177.427 221.447 179.666 227.083 179.666C232.719 179.666 238.124 177.427 242.109 173.442C246.094 169.457 248.333 164.052 248.333 158.416C248.333 152.78 246.094 147.375 242.109 143.39C238.124 139.405 232.719 137.166 227.083 137.166Z" fill="#8B98F2"/>
<path fill-rule="evenodd" clip-rule="evenodd" d="M170 28.332C203.815 28.332 236.245 41.765 260.156 65.6759C284.067 89.5868 297.5 122.017 297.5 155.832V277.949C297.5 303.874 269.648 320.265 246.996 307.685L241.853 304.922C227.687 297.669 216.58 295.289 200.926 303.307L198.121 304.837C190.047 309.449 180.962 312.004 171.668 312.276C162.374 312.548 153.155 310.528 144.826 306.395L141.879 304.837C123.788 294.495 111.194 297.584 93.0042 307.67C70.3375 320.279 42.5 303.888 42.5 277.963V155.832C42.5 122.017 55.933 89.5868 79.8439 65.6759C103.755 41.765 136.185 28.332 170 28.332ZM120.417 127.499C114.781 127.499 109.376 129.738 105.391 133.723C101.405 137.708 99.1667 143.113 99.1667 148.749C99.1667 154.385 101.405 159.79 105.391 163.775C109.376 167.76 114.781 169.999 120.417 169.999C126.053 169.999 131.458 167.76 135.443 163.775C139.428 159.79 141.667 154.385 141.667 148.749C141.667 143.113 139.428 137.708 135.443 133.723C131.458 129.738 126.053 127.499 120.417 127.499ZM219.583 127.499C213.947 127.499 208.542 129.738 204.557 133.723C200.572 137.708 198.333 143.113 198.333 148.749C198.333 154.385 200.572 159.79 204.557 163.775C208.542 167.76 213.947 169.999 219.583 169.999C225.219 169.999 230.624 167.76 234.609 163.775C238.594 159.79 240.833 154.385 240.833 148.749C240.833 143.113 238.594 137.708 234.609 133.723C230.624 129.738 225.219 127.499 219.583 127.499Z" fill="white"/>
<defs>
<linearGradient id="paint0_linear_20709_4902" x1="162.132" y1="126.925" x2="330.901" y2="225.936" gradientUnits="userSpaceOnUse">
<stop stop-color="#8B98F2"/>
<stop offset="1" stop-color="#FF5A5E"/>
</linearGradient>
</defs>
</svg>
