<svg width="2097" height="274" viewBox="0 0 2097 274" fill="none" xmlns="http://www.w3.org/2000/svg">
<path d="M1828.48 169.665C1835.12 169.665 1841.25 168.523 1846.84 166.219C1852.44 163.921 1857.25 160.719 1861.27 156.609C1865.29 152.501 1868.48 147.743 1870.84 142.321C1873.2 136.907 1874.38 131.071 1874.38 124.829C1874.38 118.757 1873.2 113.007 1870.84 107.587C1868.48 102.173 1865.29 97.4448 1861.27 93.4208C1857.25 89.3988 1852.44 86.2348 1846.84 83.9368C1841.25 81.6408 1835.12 80.4847 1828.48 80.4847C1822.02 80.4847 1815.94 81.6408 1810.26 83.9368C1804.57 86.2348 1799.63 89.3508 1795.44 93.2968C1791.24 97.2428 1787.96 101.921 1785.6 107.337C1783.23 112.765 1782.05 118.593 1782.05 124.829C1782.05 131.071 1783.23 136.945 1785.6 142.445C1787.96 147.945 1791.24 152.711 1795.44 156.735C1799.63 160.757 1804.57 163.921 1810.26 166.219C1815.94 168.523 1822.02 169.665 1828.48 169.665ZM1822.71 202.195C1813.45 202.195 1804.3 200.469 1795.3 197.015C1786.3 193.555 1778.21 188.539 1771.04 181.969C1763.87 175.391 1758.1 167.351 1753.73 157.821C1749.36 148.297 1747.17 137.469 1747.17 125.337C1747.17 113.031 1749.31 102.125 1753.6 92.5928C1757.88 83.0708 1763.56 75.0228 1770.65 68.4448C1777.73 61.8748 1785.86 56.8587 1795.04 53.4067C1804.22 49.9527 1813.62 48.2188 1823.24 48.2188C1833.37 48.2188 1842.73 50.0547 1851.3 53.7188C1859.87 57.3907 1866.95 62.3907 1872.55 68.7188V48.4847H1907.96V201.929H1872.55V180.125C1866.95 186.977 1859.78 192.375 1851.04 196.297C1842.3 200.227 1832.85 202.195 1822.71 202.195Z" fill="white"/>
<path d="M2015.34 169.664C2021.8 169.664 2027.84 168.522 2033.44 166.218C2039.03 163.92 2043.93 160.756 2048.12 156.734C2052.32 152.71 2055.6 147.944 2057.96 142.444C2060.32 136.944 2061.5 131.07 2061.5 124.828C2061.5 118.592 2060.32 112.764 2057.96 107.336C2055.6 101.92 2052.32 97.2421 2048.12 93.2961C2043.93 89.3501 2039.03 86.2341 2033.44 83.9361C2027.84 81.6401 2021.8 80.4841 2015.34 80.4841C2008.87 80.4841 2002.84 81.6401 1997.24 83.9361C1991.64 86.2341 1986.79 89.3981 1982.68 93.4201C1978.57 97.4441 1975.37 102.172 1973.11 107.586C1970.83 113.006 1969.69 118.756 1969.69 124.828C1969.69 131.07 1970.83 136.906 1973.11 142.32C1975.37 147.742 1978.57 152.5 1982.68 156.608C1986.79 160.718 1991.64 163.92 1997.24 166.218C2002.84 168.522 2008.87 169.664 2015.34 169.664ZM2021.37 202.194C2010.87 202.194 2001.26 200.272 1992.52 196.428C1983.77 192.578 1976.6 187.148 1971.01 180.124V201.928H1935.86V7.82812H1971.27V70.7801C1976.69 63.9601 1983.73 58.5001 1992.38 54.3821C2001.04 50.2801 2010.52 48.2181 2020.84 48.2181C2030.46 48.2181 2039.82 49.9521 2048.91 53.4061C2058 56.8581 2066.05 61.8741 2073.05 68.4441C2080.04 75.0221 2085.67 83.0701 2089.96 92.5921C2094.24 102.124 2096.39 113.03 2096.39 125.336C2096.39 137.468 2094.2 148.296 2089.83 157.82C2085.46 167.35 2079.73 175.39 2072.65 181.968C2065.57 188.538 2057.57 193.554 2048.65 197.014C2039.73 200.468 2030.64 202.194 2021.37 202.194Z" fill="white"/>
<path d="M1456.52 193.774C1464.64 188.602 1472.01 182.392 1478.6 175.15C1485.2 167.9 1490.8 159.954 1495.38 151.298L1463.42 135.33C1457.56 146.75 1449.38 156.15 1438.86 163.5C1428.24 170.93 1415.25 174.634 1399.88 174.634C1389.56 174.634 1380.01 172.836 1371.21 169.236C1362.41 165.634 1354.84 160.672 1348.46 154.344C1342.09 148.016 1337.09 140.618 1333.45 132.158C1329.8 123.688 1327.98 114.586 1327.98 104.852C1327.98 94.93 1329.8 85.68 1333.45 77.118C1337.09 68.548 1342.14 61.102 1348.61 54.774C1355.09 48.454 1362.77 43.486 1371.67 39.884C1380.56 36.282 1390.27 34.486 1400.79 34.486C1415.15 34.486 1427.28 37.79 1437.2 44.392C1447.04 50.962 1455.19 59.9 1461.64 71.212L1492.23 52.586C1487.64 44.65 1482.14 37.438 1475.73 30.946C1469.33 24.454 1462.16 18.938 1454.22 14.384C1446.28 9.836 1437.77 6.29801 1428.69 3.78201C1419.6 1.26601 1410.18 0 1400.43 0C1385.32 0 1371.21 2.61799 1358.11 7.84399C1345.01 13.072 1333.62 20.352 1323.98 29.68C1314.31 39.016 1306.71 50.08 1301.16 62.86C1295.62 75.65 1292.84 89.704 1292.84 105C1292.84 119.564 1295.43 133.236 1300.59 146.024C1305.76 158.814 1313.02 169.922 1322.4 179.344C1331.77 188.774 1343.09 196.244 1356.39 201.744C1369.68 207.25 1384.36 210 1400.43 210C1410.76 210 1420.66 208.594 1430.12 205.774C1439.59 202.946 1448.38 198.946 1456.52 193.774Z" fill="white"/>
<path d="M74.804 202.218C57.476 202.218 42.866 198.944 30.968 192.382C19.07 185.828 8.75 177.648 0 167.85L32.546 143.336C37.438 151.336 43.476 157.468 50.656 161.718C57.828 165.976 65.788 168.1 74.538 168.1C83.992 168.1 91.21 165.554 96.194 160.452C101.18 155.358 103.672 149.578 103.672 143.124C103.672 139.218 102.538 135.906 100.258 133.186C97.984 130.468 95.016 128.132 91.336 126.18C87.664 124.226 83.422 122.484 78.608 120.952C73.796 119.422 68.852 117.89 63.78 116.366C57.304 114.328 50.828 112.124 44.352 109.742C37.882 107.366 32.062 104.18 26.898 100.186C21.742 96.1938 17.538 91.2637 14.304 85.3977C11.062 79.5377 9.444 72.1938 9.444 63.3578C9.444 55.8818 11.024 48.9137 14.172 42.4597C17.32 35.9997 21.742 30.3577 27.43 25.5137C33.108 20.6717 39.852 16.8898 47.64 14.1718C55.422 11.4518 63.866 10.0938 72.968 10.0938C80.664 10.0938 87.616 10.7958 93.828 12.1938C100.038 13.5938 105.726 15.5217 110.89 17.9677C116.054 20.4217 120.774 23.3498 125.062 26.7578C129.352 30.1718 133.422 33.8897 137.274 37.9137L107.874 60.7798C99.648 48.1638 88.094 41.8497 73.226 41.8497C64.476 41.8497 57.828 43.8897 53.28 47.9677C48.726 52.0537 46.452 57.0698 46.452 63.0138C46.452 66.7498 47.508 69.8978 49.602 72.4518C51.702 74.9997 54.546 77.2497 58.14 79.2018C61.718 81.1637 65.882 82.9058 70.602 84.4358C75.328 85.9598 80.312 87.5778 85.562 89.2718C92.038 91.3118 98.554 93.6557 105.116 96.2878C111.68 98.9218 117.624 102.32 122.968 106.484C128.304 110.648 132.632 115.75 135.96 121.78C139.28 127.82 140.944 135.336 140.944 144.344C140.944 151.656 139.46 158.796 136.484 165.758C133.508 172.734 129.218 178.89 123.624 184.242C118.016 189.6 111.108 193.936 102.89 197.25C94.664 200.562 85.304 202.218 74.804 202.218Z" fill="white"/>
<path d="M237.538 169.665C244.188 169.665 250.304 168.515 255.914 166.219C261.508 163.915 266.32 160.711 270.344 156.601C274.368 152.493 277.562 147.727 279.93 142.305C282.288 136.883 283.468 131.047 283.468 124.805C283.468 118.727 282.288 112.969 279.93 107.547C277.562 102.125 274.368 97.3986 270.344 93.3666C266.32 89.3426 261.508 86.1786 255.914 83.8826C250.304 81.5786 244.188 80.4286 237.538 80.4286C231.062 80.4286 224.984 81.5786 219.296 83.8826C213.61 86.1786 208.664 89.3046 204.468 93.2506C200.266 97.1946 196.984 101.875 194.624 107.297C192.266 112.727 191.078 118.563 191.078 124.805C191.078 131.047 192.266 136.921 194.624 142.429C196.984 147.929 200.266 152.695 204.468 156.727C208.664 160.751 213.61 163.915 219.296 166.219C224.984 168.515 231.062 169.665 237.538 169.665ZM231.766 202.211C222.492 202.211 213.344 200.485 204.336 197.031C195.32 193.571 187.234 188.555 180.054 181.977C172.882 175.399 167.11 167.343 162.734 157.813C158.36 148.281 156.172 137.445 156.172 125.305C156.172 112.993 158.312 102.079 162.602 92.5466C166.89 83.0146 172.578 74.9606 179.664 68.3826C186.75 61.8046 194.882 56.7886 204.078 53.3366C213.258 49.8746 222.664 48.1406 232.288 48.1406C242.438 48.1406 251.796 49.9846 260.374 53.6486C268.946 57.3206 276.032 62.3206 281.632 68.6566V48.4066H317.07V201.953H281.632V180.133C276.032 186.993 268.86 192.383 260.11 196.313C251.36 200.251 241.914 202.211 231.766 202.211Z" fill="white"/>
<path d="M338.578 48.4066H373.75V68.2266C378.648 62.0386 384.812 57.1486 392.25 53.5466C399.688 49.9446 408.132 48.1406 417.578 48.1406C429.656 48.1406 439.844 50.4286 448.156 54.9926C456.468 59.5626 462.898 65.9847 467.452 74.2567C472.694 66.3367 479.656 59.9927 488.32 55.2567C496.976 50.5147 506.82 48.1406 517.844 48.1406C538.492 48.1406 554.062 53.7726 564.562 65.0226C575.062 76.2726 580.312 91.6866 580.312 111.265V201.953H544.094V114.501C544.094 103.555 541.288 94.8826 535.694 88.4686C530.086 82.0626 521.78 78.8506 510.758 78.8506C501.132 78.8506 493.078 82.1006 486.608 88.6006C480.132 95.0926 476.898 104.929 476.898 118.093V201.953H440.938V113.477C440.938 102.703 438.226 94.2426 432.804 88.0866C427.374 81.9286 419.328 78.8506 408.656 78.8506C398.68 78.8506 390.414 82.1866 383.852 88.8586C377.288 95.5226 374.008 105.523 374.008 118.859V201.953H338.578V48.4066Z" fill="white"/>
<path d="M658.266 202.211C641.288 202.211 627.202 199.055 616.008 192.743C604.804 186.421 596.14 177.297 590.016 165.351L622.828 150.587C626.5 157.313 631.492 162.485 637.788 166.093C644.086 169.695 651.438 171.501 659.836 171.501C668.586 171.501 675.14 169.751 679.524 166.251C683.89 162.751 686.086 158.579 686.086 153.735C686.086 151.071 685.07 148.907 683.062 147.235C681.054 145.563 678.43 144.101 675.188 142.851C671.952 141.601 668.14 140.563 663.774 139.727C659.398 138.891 654.852 137.977 650.124 136.969C643.468 135.641 636.952 134.055 630.57 132.219C624.18 130.383 618.452 127.843 613.382 124.587C608.304 121.337 604.194 117.165 601.046 112.079C597.89 106.993 596.32 100.609 596.32 92.9366C596.32 87.0926 597.766 81.4606 600.648 76.0466C603.538 70.6246 607.602 65.8286 612.852 61.6566C618.102 57.4846 624.444 54.1946 631.882 51.7726C639.32 49.3506 647.586 48.1406 656.688 48.1406C672.086 48.1406 684.898 50.9926 695.14 56.6946C705.374 62.3906 713.468 70.1486 719.414 79.9686L689.234 94.2426C686.086 89.0866 681.71 85.0226 676.108 82.0306C670.508 79.0386 664.038 77.5386 656.688 77.5386C648.288 77.5386 642.07 79.1246 638.054 82.2966C634.024 85.4686 632.016 89.1406 632.016 93.3126C632.016 98.1486 634.984 101.617 640.938 103.703C646.882 105.789 655.64 108.001 667.188 110.337C673.484 111.507 679.82 113.047 686.218 114.969C692.602 116.883 698.422 119.477 703.672 122.727C708.922 125.985 713.156 130.157 716.398 135.243C719.632 140.337 721.258 146.719 721.258 154.399C721.258 159.571 720.03 164.953 717.578 170.547C715.124 176.141 711.32 181.313 706.164 186.071C701 190.821 694.484 194.703 686.608 197.703C678.734 200.711 669.288 202.211 658.266 202.211Z" fill="white"/>
<path d="M873.492 201.952H838.32V182.718C833.422 188.804 827.296 193.578 819.952 197.03C812.602 200.484 804.024 202.21 794.226 202.21C776.032 202.21 761.632 196.546 751.046 185.21C740.46 173.874 735.172 158.07 735.172 137.804V48.4062H771.132V133.804C771.132 145.428 773.796 154.624 779.132 161.374C784.468 168.124 792.742 171.5 803.938 171.5C813.734 171.5 821.874 168 828.352 160.992C834.82 153.976 838.062 143.89 838.062 130.726V48.4062H873.492V201.952Z" fill="white"/>
<path d="M895.266 48.4066H930.438V69.3746C935.516 62.9766 941.944 57.8366 949.726 53.9606C957.516 50.0866 966.398 48.1406 976.374 48.1406C995.444 48.1406 1010.36 53.8126 1021.12 65.1486C1031.88 76.4846 1037.27 92.2806 1037.27 112.547V201.953H1001.3V116.547C1001.3 104.929 998.414 95.7346 992.64 88.9846C986.866 82.2346 978.21 78.8506 966.656 78.8506C956.508 78.8506 947.976 82.3586 941.07 89.3666C934.156 96.3826 930.702 106.469 930.702 119.633V201.953H895.266V48.4066Z" fill="white"/>
<path d="M1134.12 169.665C1140.77 169.665 1146.89 168.515 1152.49 166.219C1158.09 163.915 1162.9 160.711 1166.93 156.601C1170.95 152.493 1174.15 147.727 1176.51 142.305C1178.87 136.883 1180.05 131.047 1180.05 124.805C1180.05 118.727 1178.87 112.969 1176.51 107.547C1174.15 102.125 1170.95 97.3986 1166.93 93.3666C1162.9 89.3426 1158.09 86.1786 1152.49 83.8826C1146.89 81.5786 1140.77 80.4286 1134.12 80.4286C1127.64 80.4286 1121.56 81.5786 1115.87 83.8826C1110.19 86.1786 1105.25 89.3046 1101.05 93.2506C1096.84 97.1946 1093.57 101.875 1091.2 107.297C1088.84 112.727 1087.66 118.563 1087.66 124.805C1087.66 131.047 1088.84 136.921 1091.2 142.429C1093.57 147.929 1096.84 152.695 1101.05 156.727C1105.25 160.751 1110.19 163.915 1115.87 166.219C1121.56 168.515 1127.64 169.665 1134.12 169.665ZM1178.48 178.593C1172.87 185.945 1165.7 191.719 1156.95 195.915C1148.2 200.117 1138.66 202.211 1128.34 202.211C1119.07 202.211 1109.92 200.485 1100.91 197.031C1091.91 193.571 1083.81 188.555 1076.64 181.977C1069.46 175.399 1063.69 167.343 1059.31 157.813C1054.94 148.281 1052.75 137.445 1052.75 125.305C1052.75 112.993 1054.9 102.079 1059.18 92.5466C1063.47 83.0146 1069.16 74.9606 1076.24 68.3826C1083.33 61.8046 1091.47 56.7886 1100.66 53.3366C1109.84 49.8746 1119.24 48.1406 1128.87 48.1406C1139.02 48.1406 1148.38 50.1166 1156.95 54.0786C1165.52 58.0226 1172.61 63.3667 1178.22 70.0927V48.4066H1213.65V196.117C1213.65 206.829 1211.95 216.843 1208.53 226.179C1205.12 235.507 1200.09 243.673 1193.44 250.665C1186.79 257.665 1178.52 263.195 1168.63 267.251C1158.74 271.313 1147.33 273.343 1134.38 273.343C1124.41 273.343 1115.35 272.251 1107.22 270.063C1099.08 267.875 1091.77 264.813 1085.3 260.875C1078.83 256.937 1073.14 252.297 1068.24 246.969C1063.34 241.625 1059.14 235.727 1055.64 229.251L1087.14 210.093C1092.73 220.407 1099.03 228.109 1106.04 233.187C1113.03 238.257 1122.66 240.797 1134.91 240.797C1141.55 240.797 1147.59 239.571 1153.02 237.125C1158.44 234.673 1163.03 231.429 1166.8 227.407C1170.55 223.383 1173.45 218.657 1175.46 213.243C1177.47 207.813 1178.48 202.219 1178.48 196.445V178.593Z" fill="white"/>
<path d="M1517.31 88.2344H1597.36V118.398H1517.31V88.2344Z" fill="white"/>
<path d="M1627.84 7.82812H1663.52V167.836H1733.55V201.928H1627.84V7.82812Z" fill="white"/>
</svg>
